<?xml version="1.0" encoding="UTF-8" standalone="no"?>
<!DOCTYPE svg PUBLIC "-//W3C//DTD SVG 1.1//EN"
 "http://www.w3.org/Graphics/SVG/1.1/DTD/svg11.dtd">
<!-- Generated by graphviz version 2.39.20160809.1552 (20160809.1552)
 -->
<!-- Title: %3 Pages: 1 -->
<svg width="371pt" height="238pt"
 viewBox="0.00 0.00 370.74 237.76" xmlns="http://www.w3.org/2000/svg" xmlns:xlink="http://www.w3.org/1999/xlink">
<g id="graph0" class="graph" transform="scale(1 1) rotate(0) translate(4 233.757)">
<title>%3</title>
<polygon fill="white" stroke="transparent" points="-4,4 -4,-233.757 366.742,-233.757 366.742,4 -4,4"/>
<!-- 6 -->
<g id="node1" class="node">
<title>6</title>
<ellipse fill="black" stroke="black" cx="139.301" cy="-121.8" rx="1.8" ry="1.8"/>
</g>
<!-- 63 -->
<g id="node2" class="node">
<title>63</title>
<ellipse fill="black" stroke="black" cx="97.8" cy="-121.8" rx="1.8" ry="1.8"/>
</g>
<!-- 6&#45;&#45;63 -->
<g id="edge1" class="edge">
<title>6&#45;&#45;63</title>
<path fill="none" stroke="Green" d="M137.07,-121.8C129.797,-121.8 106.84,-121.8 99.8439,-121.8"/>
</g>
<!-- 10 -->
<g id="node3" class="node">
<title>10</title>
<ellipse fill="black" stroke="black" cx="177.8" cy="-188.376" rx="1.8" ry="1.8"/>
</g>
<!-- 29 -->
<g id="node4" class="node">
<title>29</title>
<ellipse fill="black" stroke="black" cx="218.051" cy="-188.717" rx="1.8" ry="1.8"/>
</g>
<!-- 10&#45;&#45;29 -->
<g id="edge2" class="edge">
<title>10&#45;&#45;29</title>
<path fill="none" stroke="Green" d="M179.964,-188.394C187.018,-188.454 209.283,-188.642 216.069,-188.7"/>
</g>
<!-- 36 -->
<g id="node25" class="node">
<title>36</title>
<ellipse fill="black" stroke="black" cx="236.407" cy="-204.971" rx="1.8" ry="1.8"/>
</g>
<!-- 29&#45;&#45;36 -->
<g id="edge17" class="edge">
<title>29&#45;&#45;36</title>
<path fill="none" stroke="Green" d="M219.745,-190.217C223.295,-193.36 231.468,-200.597 234.874,-203.613"/>
</g>
<!-- 53 -->
<g id="node26" class="node">
<title>53</title>
<ellipse fill="black" stroke="black" cx="269.635" cy="-186.737" rx="1.8" ry="1.8"/>
</g>
<!-- 29&#45;&#45;53 -->
<g id="edge18" class="edge">
<title>29&#45;&#45;53</title>
<path fill="none" stroke="Green" d="M220.268,-188.632C228.753,-188.306 259.113,-187.141 267.484,-186.82"/>
</g>
<!-- 43 -->
<g id="node5" class="node">
<title>43</title>
<ellipse fill="black" stroke="black" cx="227.707" cy="-76.878" rx="1.8" ry="1.8"/>
</g>
<!-- 81 -->
<g id="node7" class="node">
<title>81</title>
<ellipse fill="black" stroke="black" cx="205.104" cy="-88.9225" rx="1.8" ry="1.8"/>
</g>
<!-- 43&#45;&#45;81 -->
<g id="edge22" class="edge">
<title>43&#45;&#45;81</title>
<path fill="none" stroke="Green" d="M225.933,-77.8231C221.77,-80.0414 211.399,-85.5682 207.06,-87.88"/>
</g>
<!-- 144 -->
<g id="node35" class="node">
<title>144</title>
<ellipse fill="black" stroke="black" cx="230.881" cy="-84.5677" rx="1.8" ry="1.8"/>
</g>
<!-- 43&#45;&#45;144 -->
<g id="edge23" class="edge">
<title>43&#45;&#45;144</title>
<path fill="none" stroke="Green" d="M228.443,-78.6615C228.971,-79.9393 229.676,-81.6483 230.193,-82.8992"/>
</g>
<!-- 16 -->
<g id="node6" class="node">
<title>16</title>
<ellipse fill="black" stroke="black" cx="188.582" cy="-72.0978" rx="1.8" ry="1.8"/>
</g>
<!-- 16&#45;&#45;81 -->
<g id="edge3" class="edge">
<title>16&#45;&#45;81</title>
<path fill="none" stroke="Green" d="M190.107,-73.6505C193.302,-76.9045 200.658,-84.3954 203.723,-87.517"/>
</g>
<!-- 111 -->
<g id="node9" class="node">
<title>111</title>
<ellipse fill="black" stroke="black" cx="200.185" cy="-79.0086" rx="1.8" ry="1.8"/>
</g>
<!-- 16&#45;&#45;111 -->
<g id="edge4" class="edge">
<title>16&#45;&#45;111</title>
<path fill="none" stroke="Green" d="M190.395,-73.1776C192.638,-74.5139 196.424,-76.7688 198.572,-78.0477"/>
</g>
<!-- 125 -->
<g id="node10" class="node">
<title>125</title>
<ellipse fill="black" stroke="black" cx="176.102" cy="-50.0283" rx="1.8" ry="1.8"/>
</g>
<!-- 16&#45;&#45;125 -->
<g id="edge5" class="edge">
<title>16&#45;&#45;125</title>
<path fill="none" stroke="Green" d="M187.603,-70.3661C185.304,-66.3015 179.577,-56.1746 177.182,-51.9386"/>
</g>
<!-- 146 -->
<g id="node11" class="node">
<title>146</title>
<ellipse fill="black" stroke="black" cx="195.369" cy="-67.4569" rx="1.8" ry="1.8"/>
</g>
<!-- 16&#45;&#45;146 -->
<g id="edge6" class="edge">
<title>16&#45;&#45;146</title>
<path fill="none" stroke="Green" d="M190.156,-71.0215C191.159,-70.336 192.462,-69.4448 193.515,-68.7251"/>
</g>
<!-- 153 -->
<g id="node12" class="node">
<title>153</title>
<ellipse fill="black" stroke="black" cx="170.371" cy="-81.4667" rx="1.8" ry="1.8"/>
</g>
<!-- 16&#45;&#45;153 -->
<g id="edge7" class="edge">
<title>16&#45;&#45;153</title>
<path fill="none" stroke="Green" d="M186.901,-72.9625C183.52,-74.702 175.912,-78.6158 172.32,-80.4641"/>
</g>
<!-- 167 -->
<g id="node13" class="node">
<title>167</title>
<ellipse fill="black" stroke="black" cx="190.441" cy="-87.6234" rx="1.8" ry="1.8"/>
</g>
<!-- 16&#45;&#45;167 -->
<g id="edge8" class="edge">
<title>16&#45;&#45;167</title>
<path fill="none" stroke="Green" d="M188.81,-74.0016C189.167,-76.9813 189.853,-82.7147 190.211,-85.7041"/>
</g>
<!-- 81&#45;&#45;146 -->
<g id="edge64" class="edge">
<title>81&#45;&#45;146</title>
<path fill="none" stroke="Green" d="M204.34,-87.2382C202.547,-83.2848 198.08,-73.435 196.212,-69.3149"/>
</g>
<!-- 122 -->
<g id="node34" class="node">
<title>122</title>
<ellipse fill="black" stroke="black" cx="196.515" cy="-114.062" rx="1.8" ry="1.8"/>
</g>
<!-- 81&#45;&#45;122 -->
<g id="edge60" class="edge">
<title>81&#45;&#45;122</title>
<path fill="none" stroke="Green" d="M204.43,-90.8952C202.816,-95.6178 198.749,-107.525 197.163,-112.167"/>
</g>
<!-- 81&#45;&#45;144 -->
<g id="edge63" class="edge">
<title>81&#45;&#45;144</title>
<path fill="none" stroke="Green" d="M207.126,-88.5808C211.969,-87.7627 224.178,-85.7001 228.939,-84.896"/>
</g>
<!-- 139 -->
<g id="node48" class="node">
<title>139</title>
<ellipse fill="black" stroke="black" cx="176.457" cy="-96.246" rx="1.8" ry="1.8"/>
</g>
<!-- 81&#45;&#45;139 -->
<g id="edge62" class="edge">
<title>81&#45;&#45;139</title>
<path fill="none" stroke="Green" d="M203.224,-89.403C198.046,-90.7268 183.611,-94.4169 178.381,-95.7541"/>
</g>
<!-- 130 -->
<g id="node51" class="node">
<title>130</title>
<ellipse fill="black" stroke="black" cx="195.558" cy="-98.2348" rx="1.8" ry="1.8"/>
</g>
<!-- 81&#45;&#45;130 -->
<g id="edge61" class="edge">
<title>81&#45;&#45;130</title>
<path fill="none" stroke="Green" d="M203.612,-90.3776C201.767,-92.1782 198.652,-95.2167 196.886,-96.94"/>
</g>
<!-- 162 -->
<g id="node53" class="node">
<title>162</title>
<ellipse fill="black" stroke="black" cx="189.459" cy="-99.6185" rx="1.8" ry="1.8"/>
</g>
<!-- 81&#45;&#45;162 -->
<g id="edge65" class="edge">
<title>81&#45;&#45;162</title>
<path fill="none" stroke="Green" d="M203.185,-90.2341C200.052,-92.3762 193.898,-96.5839 191.017,-98.5538"/>
</g>
<!-- 93 -->
<g id="node8" class="node">
<title>93</title>
<ellipse fill="black" stroke="black" cx="186.4" cy="-83.2875" rx="1.8" ry="1.8"/>
</g>
<!-- 93&#45;&#45;146 -->
<g id="edge70" class="edge">
<title>93&#45;&#45;146</title>
<path fill="none" stroke="Green" d="M187.5,-81.3464C189.296,-78.176 192.824,-71.9483 194.476,-69.0327"/>
</g>
<!-- 93&#45;&#45;153 -->
<g id="edge71" class="edge">
<title>93&#45;&#45;153</title>
<path fill="none" stroke="Green" d="M184.435,-83.0643C181.358,-82.7148 175.439,-82.0424 172.353,-81.6918"/>
</g>
<!-- 93&#45;&#45;167 -->
<g id="edge73" class="edge">
<title>93&#45;&#45;167</title>
<path fill="none" stroke="Green" d="M187.679,-84.6594C188.123,-85.1358 188.622,-85.6717 189.073,-86.1555"/>
</g>
<!-- 115 -->
<g id="node40" class="node">
<title>115</title>
<ellipse fill="black" stroke="black" cx="203.65" cy="-107.089" rx="1.8" ry="1.8"/>
</g>
<!-- 93&#45;&#45;115 -->
<g id="edge68" class="edge">
<title>93&#45;&#45;115</title>
<path fill="none" stroke="Green" d="M187.532,-84.8492C190.65,-89.1516 199.341,-101.145 202.491,-105.491"/>
</g>
<!-- 93&#45;&#45;139 -->
<g id="edge69" class="edge">
<title>93&#45;&#45;139</title>
<path fill="none" stroke="Green" d="M185.181,-84.8765C183.272,-87.3636 179.6,-92.149 177.686,-94.644"/>
</g>
<!-- 93&#45;&#45;162 -->
<g id="edge72" class="edge">
<title>93&#45;&#45;162</title>
<path fill="none" stroke="Green" d="M186.775,-85.29C187.362,-88.4244 188.492,-94.4552 189.081,-97.5996"/>
</g>
<!-- 111&#45;&#45;146 -->
<g id="edge83" class="edge">
<title>111&#45;&#45;146</title>
<path fill="none" stroke="Green" d="M199.432,-77.2036C198.544,-75.0715 197.071,-71.5402 196.164,-69.3644"/>
</g>
<!-- 111&#45;&#45;167 -->
<g id="edge84" class="edge">
<title>111&#45;&#45;167</title>
<path fill="none" stroke="Green" d="M198.662,-80.3546C196.778,-82.0204 193.599,-84.8313 191.796,-86.4255"/>
</g>
<!-- 111&#45;&#45;130 -->
<g id="edge82" class="edge">
<title>111&#45;&#45;130</title>
<path fill="none" stroke="Green" d="M199.758,-80.7829C198.899,-84.3526 196.966,-92.3844 196.054,-96.1773"/>
</g>
<!-- 125&#45;&#45;146 -->
<g id="edge90" class="edge">
<title>125&#45;&#45;146</title>
<path fill="none" stroke="Green" d="M177.614,-51.3959C181.162,-54.6058 190.003,-62.6031 193.701,-65.9483"/>
</g>
<!-- 178 -->
<g id="node62" class="node">
<title>178</title>
<ellipse fill="black" stroke="black" cx="145.957" cy="-68.6742" rx="1.8" ry="1.8"/>
</g>
<!-- 125&#45;&#45;178 -->
<g id="edge91" class="edge">
<title>125&#45;&#45;178</title>
<path fill="none" stroke="Green" d="M174.481,-51.0308C169.296,-54.2381 153.137,-64.233 147.736,-67.574"/>
</g>
<!-- 170 -->
<g id="node14" class="node">
<title>170</title>
<ellipse fill="black" stroke="black" cx="113.8" cy="-65.8" rx="1.8" ry="1.8"/>
</g>
<!-- 20 -->
<g id="node15" class="node">
<title>20</title>
<ellipse fill="black" stroke="black" cx="185.8" cy="-137.8" rx="1.8" ry="1.8"/>
</g>
<!-- 60 -->
<g id="node16" class="node">
<title>60</title>
<ellipse fill="black" stroke="black" cx="205.026" cy="-99.2826" rx="1.8" ry="1.8"/>
</g>
<!-- 60&#45;&#45;81 -->
<g id="edge50" class="edge">
<title>60&#45;&#45;81</title>
<path fill="none" stroke="Green" d="M205.041,-97.2851C205.055,-95.4035 205.076,-92.6073 205.09,-90.7747"/>
</g>
<!-- 60&#45;&#45;93 -->
<g id="edge51" class="edge">
<title>60&#45;&#45;93</title>
<path fill="none" stroke="Green" d="M203.307,-97.8065C199.705,-94.713 191.412,-87.5914 187.956,-84.6238"/>
</g>
<!-- 60&#45;&#45;115 -->
<g id="edge52" class="edge">
<title>60&#45;&#45;115</title>
<path fill="none" stroke="Green" d="M204.707,-101.093C204.503,-102.246 204.239,-103.745 204.026,-104.956"/>
</g>
<!-- 60&#45;&#45;139 -->
<g id="edge53" class="edge">
<title>60&#45;&#45;139</title>
<path fill="none" stroke="Green" d="M203.151,-99.0834C197.987,-98.5345 183.592,-97.0044 178.375,-96.4499"/>
</g>
<!-- 24 -->
<g id="node17" class="node">
<title>24</title>
<ellipse fill="black" stroke="black" cx="168.094" cy="-51.352" rx="1.8" ry="1.8"/>
</g>
<!-- 24&#45;&#45;93 -->
<g id="edge13" class="edge">
<title>24&#45;&#45;93</title>
<path fill="none" stroke="Green" d="M169.078,-53.069C172.286,-58.6659 182.413,-76.331 185.499,-81.7147"/>
</g>
<!-- 47 -->
<g id="node18" class="node">
<title>47</title>
<ellipse fill="black" stroke="black" cx="148.228" cy="-50.1882" rx="1.8" ry="1.8"/>
</g>
<!-- 24&#45;&#45;47 -->
<g id="edge9" class="edge">
<title>24&#45;&#45;47</title>
<path fill="none" stroke="Green" d="M166.26,-51.2446C162.572,-51.0285 154.273,-50.5424 150.354,-50.3128"/>
</g>
<!-- 54 -->
<g id="node19" class="node">
<title>54</title>
<ellipse fill="black" stroke="black" cx="174.714" cy="-26.2302" rx="1.8" ry="1.8"/>
</g>
<!-- 24&#45;&#45;54 -->
<g id="edge10" class="edge">
<title>24&#45;&#45;54</title>
<path fill="none" stroke="Green" d="M168.613,-49.3807C169.857,-44.6615 172.992,-32.7627 174.215,-28.1236"/>
</g>
<!-- 61 -->
<g id="node20" class="node">
<title>61</title>
<ellipse fill="black" stroke="black" cx="157.035" cy="-35.957" rx="1.8" ry="1.8"/>
</g>
<!-- 24&#45;&#45;61 -->
<g id="edge11" class="edge">
<title>24&#45;&#45;61</title>
<path fill="none" stroke="Green" d="M166.738,-49.4643C164.523,-46.3811 160.172,-40.3248 158.136,-37.4894"/>
</g>
<!-- 68 -->
<g id="node21" class="node">
<title>68</title>
<ellipse fill="black" stroke="black" cx="170.928" cy="-34.1233" rx="1.8" ry="1.8"/>
</g>
<!-- 24&#45;&#45;68 -->
<g id="edge12" class="edge">
<title>24&#45;&#45;68</title>
<path fill="none" stroke="Green" d="M168.397,-49.5082C168.945,-46.1748 170.095,-39.1875 170.635,-35.9022"/>
</g>
<!-- 98 -->
<g id="node22" class="node">
<title>98</title>
<ellipse fill="black" stroke="black" cx="162.017" cy="-70.7694" rx="1.8" ry="1.8"/>
</g>
<!-- 24&#45;&#45;98 -->
<g id="edge14" class="edge">
<title>24&#45;&#45;98</title>
<path fill="none" stroke="Green" d="M167.533,-53.144C166.405,-56.7492 163.866,-64.8609 162.668,-68.6914"/>
</g>
<!-- 47&#45;&#45;61 -->
<g id="edge31" class="edge">
<title>47&#45;&#45;61</title>
<path fill="none" stroke="Green" d="M149.308,-48.4432C150.998,-45.7118 154.25,-40.4564 155.946,-37.7163"/>
</g>
<!-- 47&#45;&#45;98 -->
<g id="edge32" class="edge">
<title>47&#45;&#45;98</title>
<path fill="none" stroke="Green" d="M149.31,-51.8032C151.849,-55.5937 158.177,-65.0376 160.824,-68.9879"/>
</g>
<!-- 51 -->
<g id="node37" class="node">
<title>51</title>
<ellipse fill="black" stroke="black" cx="158.577" cy="-75.9659" rx="1.8" ry="1.8"/>
</g>
<!-- 47&#45;&#45;51 -->
<g id="edge30" class="edge">
<title>47&#45;&#45;51</title>
<path fill="none" stroke="Green" d="M148.907,-51.8796C150.777,-56.5391 155.992,-69.5276 157.882,-74.2345"/>
</g>
<!-- 158 -->
<g id="node41" class="node">
<title>158</title>
<ellipse fill="black" stroke="black" cx="128.889" cy="-37.4774" rx="1.8" ry="1.8"/>
</g>
<!-- 47&#45;&#45;158 -->
<g id="edge33" class="edge">
<title>47&#45;&#45;158</title>
<path fill="none" stroke="Green" d="M146.71,-49.1908C143.149,-46.8499 134.275,-41.0173 130.563,-38.5776"/>
</g>
<!-- 159 -->
<g id="node42" class="node">
<title>159</title>
<ellipse fill="black" stroke="black" cx="134.061" cy="-31.0009" rx="1.8" ry="1.8"/>
</g>
<!-- 47&#45;&#45;159 -->
<g id="edge34" class="edge">
<title>47&#45;&#45;159</title>
<path fill="none" stroke="Green" d="M147.116,-48.6826C144.507,-45.1489 138.007,-36.3445 135.288,-32.6617"/>
</g>
<!-- 54&#45;&#45;125 -->
<g id="edge48" class="edge">
<title>54&#45;&#45;125</title>
<path fill="none" stroke="Green" d="M174.823,-28.0976C175.078,-32.4806 175.715,-43.4006 175.982,-47.9684"/>
</g>
<!-- 54&#45;&#45;68 -->
<g id="edge46" class="edge">
<title>54&#45;&#45;68</title>
<path fill="none" stroke="Green" d="M173.836,-28.0609C173.207,-29.3725 172.365,-31.1267 171.749,-32.4106"/>
</g>
<!-- 124 -->
<g id="node49" class="node">
<title>124</title>
<ellipse fill="black" stroke="black" cx="182.901" cy="-28.4663" rx="1.8" ry="1.8"/>
</g>
<!-- 54&#45;&#45;124 -->
<g id="edge47" class="edge">
<title>54&#45;&#45;124</title>
<path fill="none" stroke="Green" d="M176.613,-26.7488C177.973,-27.1204 179.793,-27.6173 181.125,-27.9811"/>
</g>
<!-- 129 -->
<g id="node50" class="node">
<title>129</title>
<ellipse fill="black" stroke="black" cx="177.705" cy="-1.8" rx="1.8" ry="1.8"/>
</g>
<!-- 54&#45;&#45;129 -->
<g id="edge49" class="edge">
<title>54&#45;&#45;129</title>
<path fill="none" stroke="Green" d="M174.948,-24.3132C175.51,-19.7239 176.927,-8.15267 177.48,-3.64124"/>
</g>
<!-- 61&#45;&#45;68 -->
<g id="edge54" class="edge">
<title>61&#45;&#45;68</title>
<path fill="none" stroke="Green" d="M159.206,-35.6705C161.892,-35.3159 166.425,-34.7176 168.996,-34.3782"/>
</g>
<!-- 68&#45;&#45;125 -->
<g id="edge56" class="edge">
<title>68&#45;&#45;125</title>
<path fill="none" stroke="Green" d="M171.562,-36.0735C172.555,-39.1261 174.466,-44.9997 175.462,-48.0621"/>
</g>
<!-- 68&#45;&#45;124 -->
<g id="edge55" class="edge">
<title>68&#45;&#45;124</title>
<path fill="none" stroke="Green" d="M172.799,-33.2394C175.114,-32.1455 179.021,-30.2997 181.237,-29.2528"/>
</g>
<!-- 98&#45;&#45;153 -->
<g id="edge79" class="edge">
<title>98&#45;&#45;153</title>
<path fill="none" stroke="Green" d="M163.323,-72.4409C164.938,-74.5093 167.664,-77.9997 169.209,-79.9793"/>
</g>
<!-- 98&#45;&#45;139 -->
<g id="edge78" class="edge">
<title>98&#45;&#45;139</title>
<path fill="none" stroke="Green" d="M162.965,-72.441C165.575,-77.0461 172.85,-89.8829 175.487,-94.5348"/>
</g>
<!-- 27 -->
<g id="node23" class="node">
<title>27</title>
<ellipse fill="black" stroke="black" cx="221.77" cy="-96.5711" rx="1.8" ry="1.8"/>
</g>
<!-- 27&#45;&#45;81 -->
<g id="edge16" class="edge">
<title>27&#45;&#45;81</title>
<path fill="none" stroke="Green" d="M219.986,-95.7526C216.762,-94.2727 210.003,-91.1707 206.825,-89.7122"/>
</g>
<!-- 27&#45;&#45;60 -->
<g id="edge15" class="edge">
<title>27&#45;&#45;60</title>
<path fill="none" stroke="Green" d="M219.978,-96.8613C216.873,-97.364 210.507,-98.3949 207.172,-98.9351"/>
</g>
<!-- 35 -->
<g id="node24" class="node">
<title>35</title>
<ellipse fill="black" stroke="black" cx="208.836" cy="-144.377" rx="1.8" ry="1.8"/>
</g>
<!-- 58 -->
<g id="node32" class="node">
<title>58</title>
<ellipse fill="black" stroke="black" cx="218.173" cy="-165.54" rx="1.8" ry="1.8"/>
</g>
<!-- 35&#45;&#45;58 -->
<g id="edge19" class="edge">
<title>35&#45;&#45;58</title>
<path fill="none" stroke="Green" d="M209.568,-146.037C211.288,-149.935 215.572,-159.646 217.365,-163.708"/>
</g>
<!-- 35&#45;&#45;122 -->
<g id="edge20" class="edge">
<title>35&#45;&#45;122</title>
<path fill="none" stroke="Green" d="M208.027,-142.388C205.758,-136.803 199.352,-121.042 197.218,-115.79"/>
</g>
<!-- 36&#45;&#45;53 -->
<g id="edge21" class="edge">
<title>36&#45;&#45;53</title>
<path fill="none" stroke="Green" d="M238.194,-203.991C244.017,-200.795 262.397,-190.709 267.998,-187.635"/>
</g>
<!-- 110 -->
<g id="node44" class="node">
<title>110</title>
<ellipse fill="black" stroke="black" cx="318.53" cy="-196.52" rx="1.8" ry="1.8"/>
</g>
<!-- 53&#45;&#45;110 -->
<g id="edge44" class="edge">
<title>53&#45;&#45;110</title>
<path fill="none" stroke="Green" d="M271.736,-187.158C279.779,-188.767 308.556,-194.524 316.491,-196.112"/>
</g>
<!-- 134 -->
<g id="node45" class="node">
<title>134</title>
<ellipse fill="black" stroke="black" cx="298.831" cy="-202.093" rx="1.8" ry="1.8"/>
</g>
<!-- 53&#45;&#45;134 -->
<g id="edge45" class="edge">
<title>53&#45;&#45;134</title>
<path fill="none" stroke="Green" d="M271.551,-187.745C276.93,-190.574 292.108,-198.557 297.167,-201.218"/>
</g>
<!-- 78 -->
<g id="node47" class="node">
<title>78</title>
<ellipse fill="black" stroke="black" cx="301.45" cy="-166.589" rx="1.8" ry="1.8"/>
</g>
<!-- 53&#45;&#45;78 -->
<g id="edge43" class="edge">
<title>53&#45;&#45;78</title>
<path fill="none" stroke="Green" d="M271.345,-185.654C276.921,-182.123 294.52,-170.978 299.883,-167.582"/>
</g>
<!-- 112 -->
<g id="node27" class="node">
<title>112</title>
<ellipse fill="black" stroke="black" cx="89.8" cy="-73.8" rx="1.8" ry="1.8"/>
</g>
<!-- 31 -->
<g id="node28" class="node">
<title>31</title>
<ellipse fill="black" stroke="black" cx="89.8" cy="-49.8" rx="1.8" ry="1.8"/>
</g>
<!-- 150 -->
<g id="node29" class="node">
<title>150</title>
<ellipse fill="black" stroke="black" cx="322.863" cy="-129.8" rx="1.8" ry="1.8"/>
</g>
<!-- 32 -->
<g id="node30" class="node">
<title>32</title>
<ellipse fill="black" stroke="black" cx="129.8" cy="-145.8" rx="1.8" ry="1.8"/>
</g>
<!-- 50 -->
<g id="node31" class="node">
<title>50</title>
<ellipse fill="black" stroke="black" cx="221.528" cy="-123.502" rx="1.8" ry="1.8"/>
</g>
<!-- 50&#45;&#45;115 -->
<g id="edge39" class="edge">
<title>50&#45;&#45;115</title>
<path fill="none" stroke="Green" d="M219.878,-121.988C216.421,-118.813 208.46,-111.506 205.143,-108.46"/>
</g>
<!-- 109 -->
<g id="node33" class="node">
<title>109</title>
<ellipse fill="black" stroke="black" cx="105.8" cy="-145.8" rx="1.8" ry="1.8"/>
</g>
<!-- 122&#45;&#45;139 -->
<g id="edge87" class="edge">
<title>122&#45;&#45;139</title>
<path fill="none" stroke="Green" d="M194.941,-112.664C191.247,-109.383 182.043,-101.208 178.193,-97.7881"/>
</g>
<!-- 122&#45;&#45;130 -->
<g id="edge86" class="edge">
<title>122&#45;&#45;130</title>
<path fill="none" stroke="Green" d="M196.398,-112.121C196.214,-109.084 195.861,-103.239 195.677,-100.191"/>
</g>
<!-- 122&#45;&#45;162 -->
<g id="edge88" class="edge">
<title>122&#45;&#45;162</title>
<path fill="none" stroke="Green" d="M195.65,-112.291C194.296,-109.519 191.69,-104.185 190.332,-101.404"/>
</g>
<!-- 44 -->
<g id="node36" class="node">
<title>44</title>
<ellipse fill="black" stroke="black" cx="153.046" cy="-84.6103" rx="1.8" ry="1.8"/>
</g>
<!-- 44&#45;&#45;153 -->
<g id="edge25" class="edge">
<title>44&#45;&#45;153</title>
<path fill="none" stroke="Green" d="M154.9,-84.2739C158.252,-83.6657 165.278,-82.3907 168.582,-81.7913"/>
</g>
<!-- 44&#45;&#45;98 -->
<g id="edge24" class="edge">
<title>44&#45;&#45;98</title>
<path fill="none" stroke="Green" d="M154.146,-82.9132C155.868,-80.2567 159.181,-75.1454 160.908,-72.4805"/>
</g>
<!-- 51&#45;&#45;153 -->
<g id="edge42" class="edge">
<title>51&#45;&#45;153</title>
<path fill="none" stroke="Green" d="M160.42,-76.8254C162.7,-77.889 166.549,-79.6839 168.731,-80.7018"/>
</g>
<!-- 51&#45;&#45;98 -->
<g id="edge40" class="edge">
<title>51&#45;&#45;98</title>
<path fill="none" stroke="Green" d="M159.665,-74.3217C160.043,-73.7508 160.469,-73.1085 160.853,-72.5287"/>
</g>
<!-- 51&#45;&#45;139 -->
<g id="edge41" class="edge">
<title>51&#45;&#45;139</title>
<path fill="none" stroke="Green" d="M159.98,-77.5572C163.273,-81.2923 171.477,-90.598 174.909,-94.4905"/>
</g>
<!-- 45 -->
<g id="node38" class="node">
<title>45</title>
<ellipse fill="black" stroke="black" cx="226.037" cy="-114.747" rx="1.8" ry="1.8"/>
</g>
<!-- 45&#45;&#45;60 -->
<g id="edge27" class="edge">
<title>45&#45;&#45;60</title>
<path fill="none" stroke="Green" d="M224.389,-113.534C220.519,-110.686 210.877,-103.59 206.844,-100.621"/>
</g>
<!-- 45&#45;&#45;50 -->
<g id="edge26" class="edge">
<title>45&#45;&#45;50</title>
<path fill="none" stroke="Green" d="M225.168,-116.436C224.431,-117.867 223.372,-119.924 222.586,-121.45"/>
</g>
<!-- 106 -->
<g id="node39" class="node">
<title>106</title>
<ellipse fill="black" stroke="black" cx="248.47" cy="-125.097" rx="1.8" ry="1.8"/>
</g>
<!-- 45&#45;&#45;106 -->
<g id="edge28" class="edge">
<title>45&#45;&#45;106</title>
<path fill="none" stroke="Green" d="M227.798,-115.56C231.929,-117.466 242.223,-122.215 246.528,-124.202"/>
</g>
<!-- 45&#45;&#45;115 -->
<g id="edge29" class="edge">
<title>45&#45;&#45;115</title>
<path fill="none" stroke="Green" d="M224.281,-114.147C220.158,-112.736 209.885,-109.222 205.588,-107.752"/>
</g>
<!-- 115&#45;&#45;139 -->
<g id="edge85" class="edge">
<title>115&#45;&#45;139</title>
<path fill="none" stroke="Green" d="M201.865,-106.378C196.95,-104.418 183.248,-98.9542 178.283,-96.9743"/>
</g>
<!-- 158&#45;&#45;159 -->
<g id="edge103" class="edge">
<title>158&#45;&#45;159</title>
<path fill="none" stroke="Green" d="M130.089,-35.9753C130.853,-35.0187 131.846,-33.7751 132.648,-32.7706"/>
</g>
<!-- 48 -->
<g id="node43" class="node">
<title>48</title>
<ellipse fill="black" stroke="black" cx="320.853" cy="-227.957" rx="1.8" ry="1.8"/>
</g>
<!-- 48&#45;&#45;110 -->
<g id="edge35" class="edge">
<title>48&#45;&#45;110</title>
<path fill="none" stroke="Green" d="M320.701,-225.894C320.281,-220.212 319.11,-204.372 318.686,-198.631"/>
</g>
<!-- 48&#45;&#45;134 -->
<g id="edge36" class="edge">
<title>48&#45;&#45;134</title>
<path fill="none" stroke="Green" d="M319.669,-226.566C315.881,-222.117 304.077,-208.254 300.131,-203.619"/>
</g>
<!-- 110&#45;&#45;134 -->
<g id="edge80" class="edge">
<title>110&#45;&#45;134</title>
<path fill="none" stroke="Green" d="M316.712,-197.034C313.054,-198.069 304.825,-200.397 300.939,-201.497"/>
</g>
<!-- 137 -->
<g id="node61" class="node">
<title>137</title>
<ellipse fill="black" stroke="black" cx="360.942" cy="-203.791" rx="1.8" ry="1.8"/>
</g>
<!-- 110&#45;&#45;137 -->
<g id="edge81" class="edge">
<title>110&#45;&#45;137</title>
<path fill="none" stroke="Green" d="M320.352,-196.832C327.202,-198.007 351.389,-202.154 358.78,-203.421"/>
</g>
<!-- 49 -->
<g id="node46" class="node">
<title>49</title>
<ellipse fill="black" stroke="black" cx="273.688" cy="-152.428" rx="1.8" ry="1.8"/>
</g>
<!-- 49&#45;&#45;53 -->
<g id="edge37" class="edge">
<title>49&#45;&#45;53</title>
<path fill="none" stroke="Green" d="M273.47,-154.273C272.773,-160.174 270.6,-178.565 269.874,-184.713"/>
</g>
<!-- 49&#45;&#45;78 -->
<g id="edge38" class="edge">
<title>49&#45;&#45;78</title>
<path fill="none" stroke="Green" d="M275.509,-153.357C280.528,-155.917 294.516,-163.052 299.585,-165.638"/>
</g>
<!-- 78&#45;&#45;150 -->
<g id="edge59" class="edge">
<title>78&#45;&#45;150</title>
<path fill="none" stroke="Green" d="M302.37,-165.009C305.828,-159.067 318.04,-138.086 321.772,-131.675"/>
</g>
<!-- 78&#45;&#45;110 -->
<g id="edge57" class="edge">
<title>78&#45;&#45;110</title>
<path fill="none" stroke="Green" d="M302.368,-168.199C305.306,-173.347 314.461,-189.391 317.522,-194.754"/>
</g>
<!-- 78&#45;&#45;134 -->
<g id="edge58" class="edge">
<title>78&#45;&#45;134</title>
<path fill="none" stroke="Green" d="M301.309,-168.498C300.859,-174.605 299.455,-193.637 298.986,-199.998"/>
</g>
<!-- 139&#45;&#45;153 -->
<g id="edge98" class="edge">
<title>139&#45;&#45;153</title>
<path fill="none" stroke="Green" d="M175.71,-94.4337C174.542,-91.5972 172.295,-86.1394 171.123,-83.2937"/>
</g>
<!-- 139&#45;&#45;167 -->
<g id="edge100" class="edge">
<title>139&#45;&#45;167</title>
<path fill="none" stroke="Green" d="M178.171,-95.1887C180.855,-93.5338 186.019,-90.3495 188.712,-88.6893"/>
</g>
<!-- 139&#45;&#45;162 -->
<g id="edge99" class="edge">
<title>139&#45;&#45;162</title>
<path fill="none" stroke="Green" d="M178.488,-96.7729C181.002,-97.425 185.245,-98.5255 187.651,-99.1496"/>
</g>
<!-- 145 -->
<g id="node58" class="node">
<title>145</title>
<ellipse fill="black" stroke="black" cx="128.388" cy="-93.2029" rx="1.8" ry="1.8"/>
</g>
<!-- 139&#45;&#45;145 -->
<g id="edge97" class="edge">
<title>139&#45;&#45;145</title>
<path fill="none" stroke="Green" d="M174.391,-96.1152C166.484,-95.6146 138.192,-93.8236 130.392,-93.3298"/>
</g>
<!-- 124&#45;&#45;125 -->
<g id="edge89" class="edge">
<title>124&#45;&#45;125</title>
<path fill="none" stroke="Green" d="M182.274,-30.4561C180.959,-34.6263 177.931,-44.2265 176.67,-48.227"/>
</g>
<!-- 130&#45;&#45;139 -->
<g id="edge92" class="edge">
<title>130&#45;&#45;139</title>
<path fill="none" stroke="Green" d="M193.514,-98.022C189.818,-97.6372 182.071,-96.8306 178.429,-96.4513"/>
</g>
<!-- 130&#45;&#45;162 -->
<g id="edge93" class="edge">
<title>130&#45;&#45;162</title>
<path fill="none" stroke="Green" d="M193.629,-98.6726C192.959,-98.8246 192.205,-98.9956 191.524,-99.15"/>
</g>
<!-- 140 -->
<g id="node52" class="node">
<title>140</title>
<ellipse fill="black" stroke="black" cx="81.8" cy="-145.8" rx="1.8" ry="1.8"/>
</g>
<!-- 162&#45;&#45;167 -->
<g id="edge104" class="edge">
<title>162&#45;&#45;167</title>
<path fill="none" stroke="Green" d="M189.613,-97.7443C189.794,-95.5303 190.094,-91.8635 190.279,-89.6041"/>
</g>
<!-- 90 -->
<g id="node54" class="node">
<title>90</title>
<ellipse fill="black" stroke="black" cx="56.3112" cy="-118.058" rx="1.8" ry="1.8"/>
</g>
<!-- 94 -->
<g id="node55" class="node">
<title>94</title>
<ellipse fill="black" stroke="black" cx="79.6573" cy="-101.771" rx="1.8" ry="1.8"/>
</g>
<!-- 90&#45;&#45;94 -->
<g id="edge66" class="edge">
<title>90&#45;&#45;94</title>
<path fill="none" stroke="Green" d="M57.843,-116.989C62.0631,-114.045 73.8264,-105.839 78.0893,-102.865"/>
</g>
<!-- 177 -->
<g id="node56" class="node">
<title>177</title>
<ellipse fill="black" stroke="black" cx="39.607" cy="-129.632" rx="1.8" ry="1.8"/>
</g>
<!-- 90&#45;&#45;177 -->
<g id="edge67" class="edge">
<title>90&#45;&#45;177</title>
<path fill="none" stroke="Green" d="M54.7697,-119.126C51.6682,-121.275 44.6899,-126.11 41.3946,-128.394"/>
</g>
<!-- 133 -->
<g id="node57" class="node">
<title>133</title>
<ellipse fill="black" stroke="black" cx="60.053" cy="-97.2371" rx="1.8" ry="1.8"/>
</g>
<!-- 94&#45;&#45;133 -->
<g id="edge74" class="edge">
<title>94&#45;&#45;133</title>
<path fill="none" stroke="Green" d="M77.8481,-101.353C74.2082,-100.511 66.0184,-98.6167 62.151,-97.7223"/>
</g>
<!-- 94&#45;&#45;145 -->
<g id="edge75" class="edge">
<title>94&#45;&#45;145</title>
<path fill="none" stroke="Green" d="M81.7512,-101.403C89.7668,-99.9935 118.448,-94.9506 126.356,-93.5601"/>
</g>
<!-- 172 -->
<g id="node59" class="node">
<title>172</title>
<ellipse fill="black" stroke="black" cx="48.0873" cy="-96.2516" rx="1.8" ry="1.8"/>
</g>
<!-- 94&#45;&#45;172 -->
<g id="edge76" class="edge">
<title>94&#45;&#45;172</title>
<path fill="none" stroke="Green" d="M77.5859,-101.409C71.7696,-100.392 55.3566,-97.5226 49.8865,-96.5662"/>
</g>
<!-- 180 -->
<g id="node60" class="node">
<title>180</title>
<ellipse fill="black" stroke="black" cx="69.428" cy="-114.734" rx="1.8" ry="1.8"/>
</g>
<!-- 94&#45;&#45;180 -->
<g id="edge77" class="edge">
<title>94&#45;&#45;180</title>
<path fill="none" stroke="Green" d="M78.403,-103.361C76.4397,-105.849 72.6621,-110.636 70.6926,-113.132"/>
</g>
<!-- 133&#45;&#45;172 -->
<g id="edge94" class="edge">
<title>133&#45;&#45;172</title>
<path fill="none" stroke="Green" d="M58.1833,-97.0831C55.9748,-96.9012 52.317,-96.6 50.0632,-96.4144"/>
</g>
<!-- 145&#45;&#45;178 -->
<g id="edge102" class="edge">
<title>145&#45;&#45;178</title>
<path fill="none" stroke="Green" d="M129.54,-91.5935C132.716,-87.1597 141.569,-74.8005 144.777,-70.3217"/>
</g>
<!-- 174 -->
<g id="node67" class="node">
<title>174</title>
<ellipse fill="black" stroke="black" cx="21.2146" cy="-92.1686" rx="1.8" ry="1.8"/>
</g>
<!-- 172&#45;&#45;174 -->
<g id="edge105" class="edge">
<title>172&#45;&#45;174</title>
<path fill="none" stroke="Green" d="M45.9786,-95.9313C40.9304,-95.1642 28.2024,-93.2303 23.24,-92.4763"/>
</g>
<!-- 126 -->
<g id="node63" class="node">
<title>126</title>
<ellipse fill="black" stroke="black" cx="73.8" cy="-25.8" rx="1.8" ry="1.8"/>
</g>
<!-- 135 -->
<g id="node64" class="node">
<title>135</title>
<ellipse fill="black" stroke="black" cx="158.985" cy="-147.877" rx="1.8" ry="1.8"/>
</g>
<!-- 138 -->
<g id="node65" class="node">
<title>138</title>
<ellipse fill="black" stroke="black" cx="165.73" cy="-126.107" rx="1.8" ry="1.8"/>
</g>
<!-- 135&#45;&#45;138 -->
<g id="edge95" class="edge">
<title>135&#45;&#45;138</title>
<path fill="none" stroke="Green" d="M159.607,-145.868C160.912,-141.657 163.915,-131.964 165.166,-127.925"/>
</g>
<!-- 138&#45;&#45;139 -->
<g id="edge96" class="edge">
<title>138&#45;&#45;139</title>
<path fill="none" stroke="Green" d="M166.433,-124.147C168.41,-118.646 173.987,-103.122 175.845,-97.9478"/>
</g>
<!-- 141 -->
<g id="node66" class="node">
<title>141</title>
<ellipse fill="black" stroke="black" cx="1.8" cy="-88.1945" rx="1.8" ry="1.8"/>
</g>
<!-- 141&#45;&#45;174 -->
<g id="edge101" class="edge">
<title>141&#45;&#45;174</title>
<path fill="none" stroke="Green" d="M3.59168,-88.5613C7.19638,-89.2991 15.3069,-90.9593 19.1369,-91.7433"/>
</g>
<!-- 192 -->
<g id="node68" class="node">
<title>192</title>
<ellipse fill="black" stroke="black" cx="97.8" cy="-25.8" rx="1.8" ry="1.8"/>
</g>
</g>
</svg>
