<?xml version="1.0" encoding="UTF-8" standalone="no"?>
<!DOCTYPE svg PUBLIC "-//W3C//DTD SVG 1.1//EN"
 "http://www.w3.org/Graphics/SVG/1.1/DTD/svg11.dtd">
<!-- Generated by graphviz version 2.39.20160809.1552 (20160809.1552)
 -->
<!-- Title: %3 Pages: 1 -->
<svg width="250pt" height="223pt"
 viewBox="0.00 0.00 250.13 222.56" xmlns="http://www.w3.org/2000/svg" xmlns:xlink="http://www.w3.org/1999/xlink">
<g id="graph0" class="graph" transform="scale(1 1) rotate(0) translate(4 218.562)">
<title>%3</title>
<polygon fill="white" stroke="transparent" points="-4,4 -4,-218.562 246.133,-218.562 246.133,4 -4,4"/>
<!-- 6 -->
<g id="node1" class="node">
<title>6</title>
<ellipse fill="black" stroke="black" cx="105.8" cy="-117.8" rx="1.8" ry="1.8"/>
</g>
<!-- 63 -->
<g id="node2" class="node">
<title>63</title>
<ellipse fill="black" stroke="black" cx="65.8" cy="-73.8" rx="1.8" ry="1.8"/>
</g>
<!-- 10 -->
<g id="node3" class="node">
<title>10</title>
<ellipse fill="black" stroke="black" cx="240.333" cy="-109.8" rx="1.8" ry="1.8"/>
</g>
<!-- 43 -->
<g id="node5" class="node">
<title>43</title>
<ellipse fill="black" stroke="black" cx="217.29" cy="-130.801" rx="1.8" ry="1.8"/>
</g>
<!-- 10&#45;&#45;43 -->
<g id="edge1" class="edge">
<title>10&#45;&#45;43</title>
<path fill="none" stroke="Red" d="M238.821,-111.178C234.656,-114.974 223.045,-125.556 218.838,-129.39"/>
</g>
<!-- 29 -->
<g id="node4" class="node">
<title>29</title>
<ellipse fill="black" stroke="black" cx="114.812" cy="-150.053" rx="1.8" ry="1.8"/>
</g>
<!-- 35 -->
<g id="node24" class="node">
<title>35</title>
<ellipse fill="black" stroke="black" cx="150.548" cy="-166.502" rx="1.8" ry="1.8"/>
</g>
<!-- 29&#45;&#45;35 -->
<g id="edge8" class="edge">
<title>29&#45;&#45;35</title>
<path fill="none" stroke="Red" d="M116.733,-150.937C122.996,-153.82 142.763,-162.919 148.788,-165.692"/>
</g>
<!-- 112 -->
<g id="node27" class="node">
<title>112</title>
<ellipse fill="black" stroke="black" cx="85.8" cy="-137.945" rx="1.8" ry="1.8"/>
</g>
<!-- 29&#45;&#45;112 -->
<g id="edge9" class="edge">
<title>29&#45;&#45;112</title>
<path fill="none" stroke="Red" d="M112.908,-149.258C107.664,-147.07 93.046,-140.969 87.7486,-138.759"/>
</g>
<!-- 81 -->
<g id="node7" class="node">
<title>81</title>
<ellipse fill="black" stroke="black" cx="188.817" cy="-156.226" rx="1.8" ry="1.8"/>
</g>
<!-- 43&#45;&#45;81 -->
<g id="edge16" class="edge">
<title>43&#45;&#45;81</title>
<path fill="none" stroke="Red" d="M215.759,-132.168C210.769,-136.624 195.02,-150.687 190.22,-154.974"/>
</g>
<!-- 16 -->
<g id="node6" class="node">
<title>16</title>
<ellipse fill="black" stroke="black" cx="71.1678" cy="-113.358" rx="1.8" ry="1.8"/>
</g>
<!-- 93 -->
<g id="node8" class="node">
<title>93</title>
<ellipse fill="black" stroke="black" cx="84.8809" cy="-86.9226" rx="1.8" ry="1.8"/>
</g>
<!-- 16&#45;&#45;93 -->
<g id="edge2" class="edge">
<title>16&#45;&#45;93</title>
<path fill="none" stroke="Red" d="M72.0675,-111.623C74.5463,-106.845 81.4559,-93.525 83.9598,-88.6981"/>
</g>
<!-- 109 -->
<g id="node33" class="node">
<title>109</title>
<ellipse fill="black" stroke="black" cx="164.887" cy="-140.869" rx="1.8" ry="1.8"/>
</g>
<!-- 81&#45;&#45;109 -->
<g id="edge31" class="edge">
<title>81&#45;&#45;109</title>
<path fill="none" stroke="Red" d="M187.247,-155.218C182.922,-152.442 170.864,-144.705 166.495,-141.901"/>
</g>
<!-- 140 -->
<g id="node52" class="node">
<title>140</title>
<ellipse fill="black" stroke="black" cx="202.45" cy="-189.955" rx="1.8" ry="1.8"/>
</g>
<!-- 81&#45;&#45;140 -->
<g id="edge32" class="edge">
<title>81&#45;&#45;140</title>
<path fill="none" stroke="Red" d="M189.55,-158.039C191.895,-163.841 199.203,-181.921 201.646,-187.965"/>
</g>
<!-- 146 -->
<g id="node11" class="node">
<title>146</title>
<ellipse fill="black" stroke="black" cx="40.9563" cy="-82.0297" rx="1.8" ry="1.8"/>
</g>
<!-- 93&#45;&#45;146 -->
<g id="edge34" class="edge">
<title>93&#45;&#45;146</title>
<path fill="none" stroke="Red" d="M82.9935,-86.7123C75.7684,-85.9075 49.9159,-83.0277 42.7878,-82.2337"/>
</g>
<!-- 153 -->
<g id="node12" class="node">
<title>153</title>
<ellipse fill="black" stroke="black" cx="107.283" cy="-66.9455" rx="1.8" ry="1.8"/>
</g>
<!-- 93&#45;&#45;153 -->
<g id="edge35" class="edge">
<title>93&#45;&#45;153</title>
<path fill="none" stroke="Red" d="M86.3507,-85.6118C90.4001,-82.0008 101.688,-71.935 105.778,-68.2872"/>
</g>
<!-- 111 -->
<g id="node9" class="node">
<title>111</title>
<ellipse fill="black" stroke="black" cx="85.8" cy="-65.8" rx="1.8" ry="1.8"/>
</g>
<!-- 125 -->
<g id="node10" class="node">
<title>125</title>
<ellipse fill="black" stroke="black" cx="29.1843" cy="-54.9761" rx="1.8" ry="1.8"/>
</g>
<!-- 125&#45;&#45;146 -->
<g id="edge39" class="edge">
<title>125&#45;&#45;146</title>
<path fill="none" stroke="Red" d="M29.9567,-56.7511C32.0846,-61.6413 38.0161,-75.2727 40.1657,-80.2126"/>
</g>
<!-- 192 -->
<g id="node68" class="node">
<title>192</title>
<ellipse fill="black" stroke="black" cx="9.8" cy="-78.4067" rx="1.8" ry="1.8"/>
</g>
<!-- 146&#45;&#45;192 -->
<g id="edge45" class="edge">
<title>146&#45;&#45;192</title>
<path fill="none" stroke="Red" d="M38.9121,-81.792C33.2803,-81.1371 17.5816,-79.3116 11.8926,-78.6501"/>
</g>
<!-- 167 -->
<g id="node13" class="node">
<title>167</title>
<ellipse fill="black" stroke="black" cx="53.8" cy="-53.8" rx="1.8" ry="1.8"/>
</g>
<!-- 170 -->
<g id="node14" class="node">
<title>170</title>
<ellipse fill="black" stroke="black" cx="49.8" cy="-117.8" rx="1.8" ry="1.8"/>
</g>
<!-- 20 -->
<g id="node15" class="node">
<title>20</title>
<ellipse fill="black" stroke="black" cx="191.301" cy="-117.8" rx="1.8" ry="1.8"/>
</g>
<!-- 60 -->
<g id="node16" class="node">
<title>60</title>
<ellipse fill="black" stroke="black" cx="149.8" cy="-117.8" rx="1.8" ry="1.8"/>
</g>
<!-- 20&#45;&#45;60 -->
<g id="edge3" class="edge">
<title>20&#45;&#45;60</title>
<path fill="none" stroke="Red" d="M189.07,-117.8C181.797,-117.8 158.84,-117.8 151.844,-117.8"/>
</g>
<!-- 24 -->
<g id="node17" class="node">
<title>24</title>
<ellipse fill="black" stroke="black" cx="108.629" cy="-95.8629" rx="1.8" ry="1.8"/>
</g>
<!-- 24&#45;&#45;93 -->
<g id="edge6" class="edge">
<title>24&#45;&#45;93</title>
<path fill="none" stroke="Red" d="M106.766,-95.1613C102.304,-93.4818 91.0562,-89.2473 86.6707,-87.5964"/>
</g>
<!-- 24&#45;&#45;153 -->
<g id="edge7" class="edge">
<title>24&#45;&#45;153</title>
<path fill="none" stroke="Red" d="M108.541,-93.9655C108.297,-88.7384 107.619,-74.1679 107.373,-68.8877"/>
</g>
<!-- 47 -->
<g id="node18" class="node">
<title>47</title>
<ellipse fill="black" stroke="black" cx="126.901" cy="-83.9767" rx="1.8" ry="1.8"/>
</g>
<!-- 24&#45;&#45;47 -->
<g id="edge4" class="edge">
<title>24&#45;&#45;47</title>
<path fill="none" stroke="Red" d="M110.315,-94.7659C113.849,-92.4671 121.985,-87.175 125.375,-84.9697"/>
</g>
<!-- 61 -->
<g id="node20" class="node">
<title>61</title>
<ellipse fill="black" stroke="black" cx="127.602" cy="-117.01" rx="1.8" ry="1.8"/>
</g>
<!-- 24&#45;&#45;61 -->
<g id="edge5" class="edge">
<title>24&#45;&#45;61</title>
<path fill="none" stroke="Red" d="M109.874,-97.2504C113.303,-101.073 122.863,-111.728 126.327,-115.59"/>
</g>
<!-- 47&#45;&#45;93 -->
<g id="edge21" class="edge">
<title>47&#45;&#45;93</title>
<path fill="none" stroke="Red" d="M125.096,-84.1033C118.309,-84.5791 94.3455,-86.2591 87.0224,-86.7724"/>
</g>
<!-- 47&#45;&#45;153 -->
<g id="edge22" class="edge">
<title>47&#45;&#45;153</title>
<path fill="none" stroke="Red" d="M125.362,-82.6403C121.749,-79.5036 112.747,-71.6886 108.981,-68.4197"/>
</g>
<!-- 47&#45;&#45;61 -->
<g id="edge20" class="edge">
<title>47&#45;&#45;61</title>
<path fill="none" stroke="Red" d="M126.947,-86.1441C127.076,-92.23 127.44,-109.404 127.562,-115.127"/>
</g>
<!-- 51 -->
<g id="node37" class="node">
<title>51</title>
<ellipse fill="black" stroke="black" cx="127.046" cy="-50.4541" rx="1.8" ry="1.8"/>
</g>
<!-- 47&#45;&#45;51 -->
<g id="edge19" class="edge">
<title>47&#45;&#45;51</title>
<path fill="none" stroke="Red" d="M126.909,-82.1744C126.934,-76.4082 127.011,-58.4388 127.037,-52.4322"/>
</g>
<!-- 158 -->
<g id="node41" class="node">
<title>158</title>
<ellipse fill="black" stroke="black" cx="158.194" cy="-75.2652" rx="1.8" ry="1.8"/>
</g>
<!-- 47&#45;&#45;158 -->
<g id="edge23" class="edge">
<title>47&#45;&#45;158</title>
<path fill="none" stroke="Red" d="M128.954,-83.4052C134.72,-81.8002 150.988,-77.2712 156.41,-75.7617"/>
</g>
<!-- 159 -->
<g id="node42" class="node">
<title>159</title>
<ellipse fill="black" stroke="black" cx="157.286" cy="-95.184" rx="1.8" ry="1.8"/>
</g>
<!-- 47&#45;&#45;159 -->
<g id="edge24" class="edge">
<title>47&#45;&#45;159</title>
<path fill="none" stroke="Red" d="M128.895,-84.7121C134.493,-86.7769 150.29,-92.6034 155.555,-94.5453"/>
</g>
<!-- 54 -->
<g id="node19" class="node">
<title>54</title>
<ellipse fill="black" stroke="black" cx="153.8" cy="-29.8" rx="1.8" ry="1.8"/>
</g>
<!-- 68 -->
<g id="node21" class="node">
<title>68</title>
<ellipse fill="black" stroke="black" cx="138.029" cy="-145.498" rx="1.8" ry="1.8"/>
</g>
<!-- 61&#45;&#45;68 -->
<g id="edge29" class="edge">
<title>61&#45;&#45;68</title>
<path fill="none" stroke="Red" d="M128.286,-118.879C130.171,-124.029 135.425,-138.383 137.329,-143.584"/>
</g>
<!-- 98 -->
<g id="node22" class="node">
<title>98</title>
<ellipse fill="black" stroke="black" cx="111.024" cy="-35.6631" rx="1.8" ry="1.8"/>
</g>
<!-- 98&#45;&#45;153 -->
<g id="edge37" class="edge">
<title>98&#45;&#45;153</title>
<path fill="none" stroke="Red" d="M110.779,-37.7156C110.103,-43.3702 108.217,-59.1324 107.534,-64.8444"/>
</g>
<!-- 27 -->
<g id="node23" class="node">
<title>27</title>
<ellipse fill="black" stroke="black" cx="125.8" cy="-169.8" rx="1.8" ry="1.8"/>
</g>
<!-- 35&#45;&#45;81 -->
<g id="edge13" class="edge">
<title>35&#45;&#45;81</title>
<path fill="none" stroke="Red" d="M152.605,-165.95C159.312,-164.149 180.481,-158.464 186.933,-156.732"/>
</g>
<!-- 58 -->
<g id="node32" class="node">
<title>58</title>
<ellipse fill="black" stroke="black" cx="127.512" cy="-191.311" rx="1.8" ry="1.8"/>
</g>
<!-- 35&#45;&#45;58 -->
<g id="edge12" class="edge">
<title>35&#45;&#45;58</title>
<path fill="none" stroke="Red" d="M149.309,-167.836C145.347,-172.103 132.999,-185.402 128.871,-189.847"/>
</g>
<!-- 35&#45;&#45;109 -->
<g id="edge14" class="edge">
<title>35&#45;&#45;109</title>
<path fill="none" stroke="Red" d="M151.489,-164.821C154.081,-160.187 161.306,-147.271 163.924,-142.591"/>
</g>
<!-- 122 -->
<g id="node34" class="node">
<title>122</title>
<ellipse fill="black" stroke="black" cx="172.082" cy="-192.875" rx="1.8" ry="1.8"/>
</g>
<!-- 35&#45;&#45;122 -->
<g id="edge15" class="edge">
<title>35&#45;&#45;122</title>
<path fill="none" stroke="Red" d="M151.705,-167.92C155.41,-172.457 166.953,-186.594 170.811,-191.319"/>
</g>
<!-- 36 -->
<g id="node25" class="node">
<title>36</title>
<ellipse fill="black" stroke="black" cx="105.8" cy="-169.8" rx="1.8" ry="1.8"/>
</g>
<!-- 53 -->
<g id="node26" class="node">
<title>53</title>
<ellipse fill="black" stroke="black" cx="103.38" cy="-207.495" rx="1.8" ry="1.8"/>
</g>
<!-- 134 -->
<g id="node45" class="node">
<title>134</title>
<ellipse fill="black" stroke="black" cx="49.8" cy="-200.178" rx="1.8" ry="1.8"/>
</g>
<!-- 53&#45;&#45;134 -->
<g id="edge28" class="edge">
<title>53&#45;&#45;134</title>
<path fill="none" stroke="Red" d="M101.077,-207.18C92.264,-205.977 60.729,-201.671 52.034,-200.483"/>
</g>
<!-- 78 -->
<g id="node47" class="node">
<title>78</title>
<ellipse fill="black" stroke="black" cx="82.9759" cy="-157.8" rx="1.8" ry="1.8"/>
</g>
<!-- 53&#45;&#45;78 -->
<g id="edge27" class="edge">
<title>53&#45;&#45;78</title>
<path fill="none" stroke="Red" d="M102.503,-205.359C99.1466,-197.185 87.1378,-167.937 83.8267,-159.872"/>
</g>
<!-- 31 -->
<g id="node28" class="node">
<title>31</title>
<ellipse fill="black" stroke="black" cx="75.3014" cy="-33.8" rx="1.8" ry="1.8"/>
</g>
<!-- 150 -->
<g id="node29" class="node">
<title>150</title>
<ellipse fill="black" stroke="black" cx="33.8" cy="-33.8" rx="1.8" ry="1.8"/>
</g>
<!-- 31&#45;&#45;150 -->
<g id="edge10" class="edge">
<title>31&#45;&#45;150</title>
<path fill="none" stroke="Red" d="M73.0701,-33.8C65.7968,-33.8 42.8402,-33.8 35.8439,-33.8"/>
</g>
<!-- 32 -->
<g id="node30" class="node">
<title>32</title>
<ellipse fill="black" stroke="black" cx="63.3014" cy="-137.8" rx="1.8" ry="1.8"/>
</g>
<!-- 50 -->
<g id="node31" class="node">
<title>50</title>
<ellipse fill="black" stroke="black" cx="21.8" cy="-137.8" rx="1.8" ry="1.8"/>
</g>
<!-- 32&#45;&#45;50 -->
<g id="edge11" class="edge">
<title>32&#45;&#45;50</title>
<path fill="none" stroke="Red" d="M61.0701,-137.8C53.7968,-137.8 30.8402,-137.8 23.8439,-137.8"/>
</g>
<!-- 122&#45;&#45;140 -->
<g id="edge38" class="edge">
<title>122&#45;&#45;140</title>
<path fill="none" stroke="Red" d="M174.075,-192.684C179.564,-192.156 194.865,-190.684 200.41,-190.151"/>
</g>
<!-- 144 -->
<g id="node35" class="node">
<title>144</title>
<ellipse fill="black" stroke="black" cx="93.8" cy="-13.8" rx="1.8" ry="1.8"/>
</g>
<!-- 44 -->
<g id="node36" class="node">
<title>44</title>
<ellipse fill="black" stroke="black" cx="130.746" cy="-21.8" rx="1.8" ry="1.8"/>
</g>
<!-- 44&#45;&#45;98 -->
<g id="edge18" class="edge">
<title>44&#45;&#45;98</title>
<path fill="none" stroke="Red" d="M129.199,-22.8878C125.566,-25.441 116.517,-31.8022 112.732,-34.4631"/>
</g>
<!-- 44&#45;&#45;51 -->
<g id="edge17" class="edge">
<title>44&#45;&#45;51</title>
<path fill="none" stroke="Red" d="M130.503,-23.6801C129.834,-28.8596 127.97,-43.2975 127.294,-48.5296"/>
</g>
<!-- 51&#45;&#45;153 -->
<g id="edge26" class="edge">
<title>51&#45;&#45;153</title>
<path fill="none" stroke="Red" d="M125.495,-51.7482C121.855,-54.7854 112.787,-62.3527 108.994,-65.518"/>
</g>
<!-- 51&#45;&#45;98 -->
<g id="edge25" class="edge">
<title>51&#45;&#45;98</title>
<path fill="none" stroke="Red" d="M125.567,-49.0891C122.468,-46.2285 115.335,-39.643 112.363,-36.8987"/>
</g>
<!-- 45 -->
<g id="node38" class="node">
<title>45</title>
<ellipse fill="black" stroke="black" cx="13.8" cy="-33.8" rx="1.8" ry="1.8"/>
</g>
<!-- 106 -->
<g id="node39" class="node">
<title>106</title>
<ellipse fill="black" stroke="black" cx="153.8" cy="-9.8" rx="1.8" ry="1.8"/>
</g>
<!-- 115 -->
<g id="node40" class="node">
<title>115</title>
<ellipse fill="black" stroke="black" cx="177.8" cy="-45.8" rx="1.8" ry="1.8"/>
</g>
<!-- 158&#45;&#45;159 -->
<g id="edge46" class="edge">
<title>158&#45;&#45;159</title>
<path fill="none" stroke="Red" d="M158.11,-77.1034C157.941,-80.8017 157.562,-89.1229 157.383,-93.0524"/>
</g>
<!-- 48 -->
<g id="node43" class="node">
<title>48</title>
<ellipse fill="black" stroke="black" cx="177.8" cy="-73.8" rx="1.8" ry="1.8"/>
</g>
<!-- 110 -->
<g id="node44" class="node">
<title>110</title>
<ellipse fill="black" stroke="black" cx="177.8" cy="-93.8" rx="1.8" ry="1.8"/>
</g>
<!-- 49 -->
<g id="node46" class="node">
<title>49</title>
<ellipse fill="black" stroke="black" cx="37.8" cy="-177.8" rx="1.8" ry="1.8"/>
</g>
<!-- 78&#45;&#45;134 -->
<g id="edge30" class="edge">
<title>78&#45;&#45;134</title>
<path fill="none" stroke="Red" d="M81.5504,-159.621C76.0933,-166.592 56.5671,-191.534 51.1833,-198.411"/>
</g>
<!-- 139 -->
<g id="node48" class="node">
<title>139</title>
<ellipse fill="black" stroke="black" cx="203.38" cy="-59.4946" rx="1.8" ry="1.8"/>
</g>
<!-- 124 -->
<g id="node49" class="node">
<title>124</title>
<ellipse fill="black" stroke="black" cx="9.8" cy="-57.8" rx="1.8" ry="1.8"/>
</g>
<!-- 129 -->
<g id="node50" class="node">
<title>129</title>
<ellipse fill="black" stroke="black" cx="113.8" cy="-1.8" rx="1.8" ry="1.8"/>
</g>
<!-- 130 -->
<g id="node51" class="node">
<title>130</title>
<ellipse fill="black" stroke="black" cx="59.3014" cy="-165.8" rx="1.8" ry="1.8"/>
</g>
<!-- 162 -->
<g id="node53" class="node">
<title>162</title>
<ellipse fill="black" stroke="black" cx="17.8" cy="-165.8" rx="1.8" ry="1.8"/>
</g>
<!-- 130&#45;&#45;162 -->
<g id="edge41" class="edge">
<title>130&#45;&#45;162</title>
<path fill="none" stroke="Red" d="M57.0701,-165.8C49.7968,-165.8 26.8402,-165.8 19.8439,-165.8"/>
</g>
<!-- 90 -->
<g id="node54" class="node">
<title>90</title>
<ellipse fill="black" stroke="black" cx="22.5885" cy="-105.789" rx="1.8" ry="1.8"/>
</g>
<!-- 90&#45;&#45;146 -->
<g id="edge33" class="edge">
<title>90&#45;&#45;146</title>
<path fill="none" stroke="Red" d="M23.7937,-104.23C27.1138,-99.935 36.3688,-87.9637 39.7226,-83.6255"/>
</g>
<!-- 94 -->
<g id="node55" class="node">
<title>94</title>
<ellipse fill="black" stroke="black" cx="55.3014" cy="-13.8" rx="1.8" ry="1.8"/>
</g>
<!-- 133 -->
<g id="node57" class="node">
<title>133</title>
<ellipse fill="black" stroke="black" cx="13.8" cy="-13.8" rx="1.8" ry="1.8"/>
</g>
<!-- 94&#45;&#45;133 -->
<g id="edge36" class="edge">
<title>94&#45;&#45;133</title>
<path fill="none" stroke="Red" d="M53.0701,-13.8C45.7968,-13.8 22.8402,-13.8 15.8439,-13.8"/>
</g>
<!-- 177 -->
<g id="node56" class="node">
<title>177</title>
<ellipse fill="black" stroke="black" cx="133.8" cy="-1.8" rx="1.8" ry="1.8"/>
</g>
<!-- 145 -->
<g id="node58" class="node">
<title>145</title>
<ellipse fill="black" stroke="black" cx="81.8" cy="-185.8" rx="1.8" ry="1.8"/>
</g>
<!-- 172 -->
<g id="node59" class="node">
<title>172</title>
<ellipse fill="black" stroke="black" cx="17.8" cy="-185.8" rx="1.8" ry="1.8"/>
</g>
<!-- 180 -->
<g id="node60" class="node">
<title>180</title>
<ellipse fill="black" stroke="black" cx="1.8" cy="-145.8" rx="1.8" ry="1.8"/>
</g>
<!-- 137 -->
<g id="node61" class="node">
<title>137</title>
<ellipse fill="black" stroke="black" cx="1.8" cy="-125.8" rx="1.8" ry="1.8"/>
</g>
<!-- 178 -->
<g id="node62" class="node">
<title>178</title>
<ellipse fill="black" stroke="black" cx="1.8" cy="-105.8" rx="1.8" ry="1.8"/>
</g>
<!-- 126 -->
<g id="node63" class="node">
<title>126</title>
<ellipse fill="black" stroke="black" cx="225.532" cy="-212.762" rx="1.8" ry="1.8"/>
</g>
<!-- 126&#45;&#45;140 -->
<g id="edge40" class="edge">
<title>126&#45;&#45;140</title>
<path fill="none" stroke="Red" d="M224.017,-211.265C219.845,-207.143 208.215,-195.651 204,-191.487"/>
</g>
<!-- 135 -->
<g id="node64" class="node">
<title>135</title>
<ellipse fill="black" stroke="black" cx="149.8" cy="-52.1784" rx="1.8" ry="1.8"/>
</g>
<!-- 135&#45;&#45;139 -->
<g id="edge43" class="edge">
<title>135&#45;&#45;139</title>
<path fill="none" stroke="Red" d="M152.102,-52.4928C160.916,-53.6962 192.451,-58.0023 201.145,-59.1896"/>
</g>
<!-- 138 -->
<g id="node65" class="node">
<title>138</title>
<ellipse fill="black" stroke="black" cx="182.976" cy="-9.8" rx="1.8" ry="1.8"/>
</g>
<!-- 135&#45;&#45;138 -->
<g id="edge42" class="edge">
<title>135&#45;&#45;138</title>
<path fill="none" stroke="Red" d="M151.226,-50.3575C156.683,-43.3867 176.209,-18.4442 181.593,-11.567"/>
</g>
<!-- 138&#45;&#45;139 -->
<g id="edge44" class="edge">
<title>138&#45;&#45;139</title>
<path fill="none" stroke="Red" d="M183.853,-11.9353C187.209,-20.1096 199.218,-49.3581 202.529,-57.4226"/>
</g>
<!-- 141 -->
<g id="node66" class="node">
<title>141</title>
<ellipse fill="black" stroke="black" cx="33.8" cy="-1.8" rx="1.8" ry="1.8"/>
</g>
<!-- 174 -->
<g id="node67" class="node">
<title>174</title>
<ellipse fill="black" stroke="black" cx="149.8" cy="-189.8" rx="1.8" ry="1.8"/>
</g>
</g>
</svg>
